<svg xmlns="http://www.w3.org/2000/svg" viewBox="0 0 478 478"><defs><style>.cls-1{fill:#dcdcdc;}.cls-1,.cls-2,.cls-3,.cls-4,.cls-5{opacity:0.75;}.cls-2{fill:#787878;}.cls-3{fill:#646464;}.cls-4{fill:#6e6e6e;}.cls-5{fill:#dbdbdb;}</style></defs><title>loading-logoRecurso 2</title><g id="Capa_2" data-name="Capa 2"><g id="Capa_1-2" data-name="Capa 1"><path class="cls-1" d="M262.5,382.5h0a23.5,23.5,0,0,0-47,0v72a23.5,23.5,0,0,0,47,0h0Z"/><path class="cls-1" d="M262.5,23.5h0a23.5,23.5,0,0,0-47,0v72a23.5,23.5,0,0,0,47,0h0Z"/><path class="cls-2" d="M382.5,215.5h0a23.5,23.5,0,0,0,0,47h72a23.5,23.5,0,0,0,0-47h-72Z"/><path class="cls-1" d="M23.5,215.5h0a23.5,23.5,0,0,0,0,47h72a23.5,23.5,0,0,0,0-47h-72Z"/><path class="cls-3" d="M331.1,351.52h0A23.5,23.5,0,1,0,290.4,375l0,0,35.95,62.27a.08.08,0,0,0,0,0,23.5,23.5,0,0,0,40.7-23.5h0Z"/><path class="cls-1" d="M151.6,40.62h0a23.5,23.5,0,0,0-40.7,23.5l0,0,35.95,62.26s0,0,0,0A23.5,23.5,0,1,0,187.6,103h0Z"/><path class="cls-2" d="M351.52,146.9h0A23.5,23.5,0,1,0,375,187.61l0,0,62.27-36,0,0a23.5,23.5,0,1,0-23.5-40.7h0Z"/><path class="cls-1" d="M40.62,326.4h0a23.5,23.5,0,0,0,23.5,40.71l0,0,62.26-35.95,0,0A23.5,23.5,0,1,0,103,290.4h0Z"/><path class="cls-4" d="M375,290.4h0a23.5,23.5,0,1,0-23.51,40.7l.05,0,62.27,35.95,0,0a23.5,23.5,0,0,0,23.5-40.71h0Z"/><path class="cls-5" d="M64.12,110.9h0a23.5,23.5,0,1,0-23.5,40.7l.05,0,62.26,36,0,0a23.5,23.5,0,0,0,23.5-40.71h0Z"/><path class="cls-1" d="M290.4,103h0a23.5,23.5,0,0,0,40.7,23.5l0,0,35.95-62.26,0,0a23.5,23.5,0,0,0-40.71-23.5h0Z"/><path class="cls-1" d="M110.9,413.88h0a23.5,23.5,0,1,0,40.7,23.5l0,0,36-62.27,0,0a23.5,23.5,0,1,0-40.71-23.5h0Z"/></g></g></svg>